<?xml version="1.0" encoding="iso-8859-1"?>
<!-- Generator: Adobe Illustrator 19.0.0, SVG Export Plug-In . SVG Version: 6.00 Build 0)  -->
<svg version="1.1" id="Layer_1" xmlns="http://www.w3.org/2000/svg" xmlns:xlink="http://www.w3.org/1999/xlink" x="0px" y="0px"
	 viewBox="0 0 502.816 502.816" style="enable-background:new 0 0 502.816 502.816;" xml:space="preserve">
<g>
	<path style="fill:#14755C;" d="M172.796,462.454c-2.072,5.041-7.853,7.459-12.902,5.396l0,0c-5.057-2.064-7.459-7.838-5.404-12.895
		l20.417-49.79c2.064-5.057,7.845-7.467,12.895-5.404l0,0c5.049,2.079,7.467,7.845,5.404,12.895L172.796,462.454z"/>
	<path style="fill:#14755C;" d="M172.449,186.431c0,7.247-5.876,13.123-13.123,13.123l0,0c-7.263,0-13.123-5.876-13.123-13.123
		V13.123c0-7.247,5.86-13.123,13.123-13.123l0,0c7.247,0,13.123,5.876,13.123,13.123V186.431z"/>
</g>
<path style="fill:#A1B7AA;" d="M335.494,339.039h73.35c-4.734,49.806-46.773,88.915-97.792,88.915
	c-54.17,0-98.241-44.087-98.241-98.265l-0.024-103.455c-0.087-33.808-0.15-72.137,10.405-82.723
	c4.907-4.915,16.865-5.648,23.52-5.648V63.015H56.068c-20.669,0-37.431,16.762-37.431,37.431c0,20.661,16.762,37.423,37.431,37.423
	h88.521c-6.79,26.419-6.727,56.942-6.672,88.513l0.032,103.306c0,95.46,77.643,173.127,173.103,173.127
	c92.333,0,167.991-72.649,172.859-163.777h0.26V193.316L335.494,339.039z"/>
<g>
	<path style="fill:#B3C6BA;" d="M137.956,253.542c0,87.584,65.386,160.138,149.89,171.52
		c-42.984-10.476-75.028-49.207-75.028-95.374l-0.024-103.455c-0.024-5.648-0.024-11.414,0.008-17.164l-0.008-58.982
		c-0.087-33.808-0.15-72.137,10.405-82.723c2.19-2.19,5.782-3.513,9.689-4.356h-88.584c-5.608,22.638-6.341,48.207-6.388,74.854
		h6.672c-5.64,21.937-6.546,46.742-6.656,72.594L137.956,253.542z"/>
	<path style="fill:#B3C6BA;" d="M359.227,339.039h49.617c-3.938,41.456-33.753,75.406-73.043,85.662
		c80.738-11.634,143.691-78.982,148.118-161.808h0.26v-69.577l-76.036,74.531C403.645,298.409,385.095,324.395,359.227,339.039z"/>
</g>
<g>
	<path style="fill:#14755C;" d="M234.756,175.009c1.827,6.262-1.772,12.824-8.019,14.659l-88.812,26.033
		c-6.262,1.843-12.832-1.757-14.659-8.019l0,0c-1.835-6.254,1.757-12.824,8.019-14.659l88.797-26.033
		C226.351,165.148,232.913,168.747,234.756,175.009L234.756,175.009z"/>
	<path style="fill:#14755C;" d="M234.756,214.394c1.827,6.262-1.772,12.824-8.019,14.659l-88.812,26.033
		c-6.262,1.843-12.832-1.757-14.659-8.019l0,0c-1.835-6.254,1.757-12.824,8.019-14.659l88.797-26.033
		C226.351,204.532,232.913,208.132,234.756,214.394L234.756,214.394z"/>
	<path style="fill:#14755C;" d="M234.756,253.779c1.827,6.262-1.772,12.824-8.019,14.659l-88.812,26.033
		c-6.262,1.843-12.832-1.757-14.659-8.019l0,0c-1.835-6.254,1.757-12.824,8.019-14.659l88.797-26.033
		C226.351,243.917,232.913,247.517,234.756,253.779L234.756,253.779z"/>
	<path style="fill:#14755C;" d="M234.756,293.163c1.827,6.262-1.772,12.824-8.019,14.659l-88.812,26.033
		c-6.262,1.843-12.832-1.757-14.659-8.019l0,0c-1.835-6.254,1.757-12.824,8.019-14.659l88.797-26.033
		C226.351,283.301,232.913,286.901,234.756,293.163L234.756,293.163z"/>
	<path style="fill:#14755C;" d="M234.756,332.548c1.827,6.262-1.772,12.824-8.019,14.659l-88.812,26.033
		c-6.262,1.843-12.832-1.757-14.659-8.019l0,0c-1.835-6.254,1.757-12.824,8.019-14.659l88.797-26.033
		C226.351,322.686,232.913,326.286,234.756,332.548L234.756,332.548z"/>
</g>
<g>
</g>
<g>
</g>
<g>
</g>
<g>
</g>
<g>
</g>
<g>
</g>
<g>
</g>
<g>
</g>
<g>
</g>
<g>
</g>
<g>
</g>
<g>
</g>
<g>
</g>
<g>
</g>
<g>
</g>
</svg>
